<mxfile host="app.diagrams.net" modified="2023-08-29T08:50:07.857Z" agent="Mozilla/5.0 (Windows NT 10.0; Win64; x64) AppleWebKit/537.36 (KHTML, like Gecko) Chrome/116.0.0.0 Safari/537.36 Edg/116.0.1938.62" etag="7fdyT5H26TG_Vd2nyz3l" version="21.6.9" type="github">
  <diagram id="C5RBs43oDa-KdzZeNtuy" name="Page-1">
    <mxGraphModel dx="3760" dy="1613" grid="1" gridSize="10" guides="1" tooltips="1" connect="1" arrows="1" fold="1" page="1" pageScale="1" pageWidth="827" pageHeight="1169" math="0" shadow="0">
      <root>
        <mxCell id="WIyWlLk6GJQsqaUBKTNV-0" />
        <mxCell id="WIyWlLk6GJQsqaUBKTNV-1" parent="WIyWlLk6GJQsqaUBKTNV-0" />
        <mxCell id="byHmETt_M6u5Pi3XQ0Mt-25" style="edgeStyle=orthogonalEdgeStyle;rounded=0;orthogonalLoop=1;jettySize=auto;html=1;entryX=0.5;entryY=0;entryDx=0;entryDy=0;" edge="1" parent="WIyWlLk6GJQsqaUBKTNV-1" source="byHmETt_M6u5Pi3XQ0Mt-10" target="byHmETt_M6u5Pi3XQ0Mt-22">
          <mxGeometry relative="1" as="geometry" />
        </mxCell>
        <mxCell id="byHmETt_M6u5Pi3XQ0Mt-10" value="Start" style="ellipse;whiteSpace=wrap;html=1;" vertex="1" parent="WIyWlLk6GJQsqaUBKTNV-1">
          <mxGeometry x="570" y="580" width="120" height="80" as="geometry" />
        </mxCell>
        <mxCell id="byHmETt_M6u5Pi3XQ0Mt-85" value="" style="edgeStyle=orthogonalEdgeStyle;rounded=0;orthogonalLoop=1;jettySize=auto;html=1;" edge="1" parent="WIyWlLk6GJQsqaUBKTNV-1" source="byHmETt_M6u5Pi3XQ0Mt-22" target="byHmETt_M6u5Pi3XQ0Mt-84">
          <mxGeometry relative="1" as="geometry" />
        </mxCell>
        <mxCell id="byHmETt_M6u5Pi3XQ0Mt-22" value="Landing Page" style="whiteSpace=wrap;html=1;aspect=fixed;" vertex="1" parent="WIyWlLk6GJQsqaUBKTNV-1">
          <mxGeometry x="585" y="740" width="90" height="90" as="geometry" />
        </mxCell>
        <mxCell id="byHmETt_M6u5Pi3XQ0Mt-84" value="haveAccount" style="rhombus;whiteSpace=wrap;html=1;" vertex="1" parent="WIyWlLk6GJQsqaUBKTNV-1">
          <mxGeometry x="590" y="915" width="80" height="80" as="geometry" />
        </mxCell>
        <mxCell id="byHmETt_M6u5Pi3XQ0Mt-97" style="edgeStyle=orthogonalEdgeStyle;rounded=0;orthogonalLoop=1;jettySize=auto;html=1;entryX=1;entryY=0.5;entryDx=0;entryDy=0;" edge="1" parent="WIyWlLk6GJQsqaUBKTNV-1" source="byHmETt_M6u5Pi3XQ0Mt-88" target="byHmETt_M6u5Pi3XQ0Mt-94">
          <mxGeometry relative="1" as="geometry">
            <mxPoint x="790.0000000000002" y="1120" as="targetPoint" />
            <Array as="points">
              <mxPoint x="790" y="1115" />
            </Array>
          </mxGeometry>
        </mxCell>
        <mxCell id="byHmETt_M6u5Pi3XQ0Mt-88" value="Sign up" style="whiteSpace=wrap;html=1;aspect=fixed;" vertex="1" parent="WIyWlLk6GJQsqaUBKTNV-1">
          <mxGeometry x="750" y="915" width="80" height="80" as="geometry" />
        </mxCell>
        <mxCell id="byHmETt_M6u5Pi3XQ0Mt-89" value="" style="edgeStyle=orthogonalEdgeStyle;rounded=0;orthogonalLoop=1;jettySize=auto;html=1;" edge="1" parent="WIyWlLk6GJQsqaUBKTNV-1" source="byHmETt_M6u5Pi3XQ0Mt-84" target="byHmETt_M6u5Pi3XQ0Mt-88">
          <mxGeometry relative="1" as="geometry" />
        </mxCell>
        <mxCell id="byHmETt_M6u5Pi3XQ0Mt-90" value="no" style="edgeLabel;html=1;align=center;verticalAlign=middle;resizable=0;points=[];" vertex="1" connectable="0" parent="byHmETt_M6u5Pi3XQ0Mt-89">
          <mxGeometry x="-0.5053" relative="1" as="geometry">
            <mxPoint as="offset" />
          </mxGeometry>
        </mxCell>
        <mxCell id="byHmETt_M6u5Pi3XQ0Mt-100" value="" style="edgeStyle=orthogonalEdgeStyle;rounded=0;orthogonalLoop=1;jettySize=auto;html=1;" edge="1" parent="WIyWlLk6GJQsqaUBKTNV-1" source="byHmETt_M6u5Pi3XQ0Mt-112" target="byHmETt_M6u5Pi3XQ0Mt-99">
          <mxGeometry relative="1" as="geometry" />
        </mxCell>
        <mxCell id="byHmETt_M6u5Pi3XQ0Mt-94" value="Sign in" style="whiteSpace=wrap;html=1;aspect=fixed;" vertex="1" parent="WIyWlLk6GJQsqaUBKTNV-1">
          <mxGeometry x="590" y="1075" width="80" height="80" as="geometry" />
        </mxCell>
        <mxCell id="byHmETt_M6u5Pi3XQ0Mt-95" value="" style="edgeStyle=orthogonalEdgeStyle;rounded=0;orthogonalLoop=1;jettySize=auto;html=1;" edge="1" parent="WIyWlLk6GJQsqaUBKTNV-1" source="byHmETt_M6u5Pi3XQ0Mt-84" target="byHmETt_M6u5Pi3XQ0Mt-94">
          <mxGeometry relative="1" as="geometry" />
        </mxCell>
        <mxCell id="byHmETt_M6u5Pi3XQ0Mt-96" value="yes" style="edgeLabel;html=1;align=center;verticalAlign=middle;resizable=0;points=[];" vertex="1" connectable="0" parent="byHmETt_M6u5Pi3XQ0Mt-95">
          <mxGeometry x="-0.4421" relative="1" as="geometry">
            <mxPoint as="offset" />
          </mxGeometry>
        </mxCell>
        <mxCell id="byHmETt_M6u5Pi3XQ0Mt-101" style="edgeStyle=orthogonalEdgeStyle;rounded=0;orthogonalLoop=1;jettySize=auto;html=1;entryX=1;entryY=0.75;entryDx=0;entryDy=0;" edge="1" parent="WIyWlLk6GJQsqaUBKTNV-1" source="byHmETt_M6u5Pi3XQ0Mt-99" target="byHmETt_M6u5Pi3XQ0Mt-94">
          <mxGeometry relative="1" as="geometry">
            <Array as="points">
              <mxPoint x="790" y="1390" />
              <mxPoint x="790" y="1135" />
            </Array>
          </mxGeometry>
        </mxCell>
        <mxCell id="byHmETt_M6u5Pi3XQ0Mt-102" value="no" style="edgeLabel;html=1;align=center;verticalAlign=middle;resizable=0;points=[];" vertex="1" connectable="0" parent="byHmETt_M6u5Pi3XQ0Mt-101">
          <mxGeometry x="-0.5111" y="-3" relative="1" as="geometry">
            <mxPoint x="-93" as="offset" />
          </mxGeometry>
        </mxCell>
        <mxCell id="byHmETt_M6u5Pi3XQ0Mt-105" value="" style="edgeStyle=orthogonalEdgeStyle;rounded=0;orthogonalLoop=1;jettySize=auto;html=1;" edge="1" parent="WIyWlLk6GJQsqaUBKTNV-1" source="byHmETt_M6u5Pi3XQ0Mt-99" target="byHmETt_M6u5Pi3XQ0Mt-104">
          <mxGeometry relative="1" as="geometry" />
        </mxCell>
        <mxCell id="byHmETt_M6u5Pi3XQ0Mt-106" value="yes" style="edgeLabel;html=1;align=center;verticalAlign=middle;resizable=0;points=[];" vertex="1" connectable="0" parent="byHmETt_M6u5Pi3XQ0Mt-105">
          <mxGeometry x="-0.4456" y="-3" relative="1" as="geometry">
            <mxPoint as="offset" />
          </mxGeometry>
        </mxCell>
        <mxCell id="byHmETt_M6u5Pi3XQ0Mt-99" value="isValid" style="rhombus;whiteSpace=wrap;html=1;rounded=0;" vertex="1" parent="WIyWlLk6GJQsqaUBKTNV-1">
          <mxGeometry x="590" y="1350" width="80" height="80" as="geometry" />
        </mxCell>
        <mxCell id="byHmETt_M6u5Pi3XQ0Mt-108" value="" style="edgeStyle=orthogonalEdgeStyle;rounded=0;orthogonalLoop=1;jettySize=auto;html=1;" edge="1" parent="WIyWlLk6GJQsqaUBKTNV-1" source="byHmETt_M6u5Pi3XQ0Mt-104" target="byHmETt_M6u5Pi3XQ0Mt-107">
          <mxGeometry relative="1" as="geometry" />
        </mxCell>
        <mxCell id="byHmETt_M6u5Pi3XQ0Mt-110" value="" style="edgeStyle=orthogonalEdgeStyle;rounded=0;orthogonalLoop=1;jettySize=auto;html=1;" edge="1" parent="WIyWlLk6GJQsqaUBKTNV-1" source="byHmETt_M6u5Pi3XQ0Mt-104" target="byHmETt_M6u5Pi3XQ0Mt-109">
          <mxGeometry relative="1" as="geometry" />
        </mxCell>
        <mxCell id="byHmETt_M6u5Pi3XQ0Mt-104" value="" style="shape=waypoint;sketch=0;size=6;pointerEvents=1;points=[];fillColor=default;resizable=0;rotatable=0;perimeter=centerPerimeter;snapToPoint=1;" vertex="1" parent="WIyWlLk6GJQsqaUBKTNV-1">
          <mxGeometry x="620" y="1519.21" width="20" height="20" as="geometry" />
        </mxCell>
        <mxCell id="byHmETt_M6u5Pi3XQ0Mt-120" value="" style="edgeStyle=orthogonalEdgeStyle;rounded=0;orthogonalLoop=1;jettySize=auto;html=1;" edge="1" parent="WIyWlLk6GJQsqaUBKTNV-1" source="byHmETt_M6u5Pi3XQ0Mt-107" target="byHmETt_M6u5Pi3XQ0Mt-119">
          <mxGeometry relative="1" as="geometry" />
        </mxCell>
        <mxCell id="byHmETt_M6u5Pi3XQ0Mt-107" value="Admin role" style="rounded=1;whiteSpace=wrap;html=1;sketch=0;" vertex="1" parent="WIyWlLk6GJQsqaUBKTNV-1">
          <mxGeometry x="770" y="1574.21" width="120" height="60" as="geometry" />
        </mxCell>
        <mxCell id="byHmETt_M6u5Pi3XQ0Mt-114" value="" style="edgeStyle=orthogonalEdgeStyle;rounded=0;orthogonalLoop=1;jettySize=auto;html=1;" edge="1" parent="WIyWlLk6GJQsqaUBKTNV-1" source="byHmETt_M6u5Pi3XQ0Mt-109" target="byHmETt_M6u5Pi3XQ0Mt-113">
          <mxGeometry relative="1" as="geometry" />
        </mxCell>
        <mxCell id="byHmETt_M6u5Pi3XQ0Mt-109" value="User role" style="rounded=1;whiteSpace=wrap;html=1;sketch=0;" vertex="1" parent="WIyWlLk6GJQsqaUBKTNV-1">
          <mxGeometry x="390" y="1574.21" width="120" height="60" as="geometry" />
        </mxCell>
        <mxCell id="byHmETt_M6u5Pi3XQ0Mt-111" value="" style="edgeStyle=orthogonalEdgeStyle;rounded=0;orthogonalLoop=1;jettySize=auto;html=1;" edge="1" parent="WIyWlLk6GJQsqaUBKTNV-1" source="byHmETt_M6u5Pi3XQ0Mt-94" target="byHmETt_M6u5Pi3XQ0Mt-112">
          <mxGeometry relative="1" as="geometry">
            <mxPoint x="630" y="1155" as="sourcePoint" />
            <mxPoint x="630" y="1235" as="targetPoint" />
          </mxGeometry>
        </mxCell>
        <mxCell id="byHmETt_M6u5Pi3XQ0Mt-112" value="Get Auth Info" style="shape=parallelogram;perimeter=parallelogramPerimeter;whiteSpace=wrap;html=1;fixedSize=1;rounded=0;" vertex="1" parent="WIyWlLk6GJQsqaUBKTNV-1">
          <mxGeometry x="570" y="1220" width="120" height="60" as="geometry" />
        </mxCell>
        <mxCell id="byHmETt_M6u5Pi3XQ0Mt-116" value="" style="edgeStyle=orthogonalEdgeStyle;rounded=0;orthogonalLoop=1;jettySize=auto;html=1;entryX=0.5;entryY=0;entryDx=0;entryDy=0;" edge="1" parent="WIyWlLk6GJQsqaUBKTNV-1" source="byHmETt_M6u5Pi3XQ0Mt-113" target="byHmETt_M6u5Pi3XQ0Mt-152">
          <mxGeometry relative="1" as="geometry">
            <mxPoint x="449.9999999999998" y="1854.21" as="targetPoint" />
          </mxGeometry>
        </mxCell>
        <mxCell id="byHmETt_M6u5Pi3XQ0Mt-113" value="Get CS info" style="shape=parallelogram;perimeter=parallelogramPerimeter;whiteSpace=wrap;html=1;fixedSize=1;rounded=0;sketch=0;" vertex="1" parent="WIyWlLk6GJQsqaUBKTNV-1">
          <mxGeometry x="390" y="1714.21" width="120" height="60" as="geometry" />
        </mxCell>
        <mxCell id="byHmETt_M6u5Pi3XQ0Mt-125" value="" style="edgeStyle=orthogonalEdgeStyle;rounded=0;orthogonalLoop=1;jettySize=auto;html=1;" edge="1" parent="WIyWlLk6GJQsqaUBKTNV-1" source="byHmETt_M6u5Pi3XQ0Mt-117" target="byHmETt_M6u5Pi3XQ0Mt-124">
          <mxGeometry relative="1" as="geometry" />
        </mxCell>
        <mxCell id="byHmETt_M6u5Pi3XQ0Mt-117" value="CS Product List" style="whiteSpace=wrap;html=1;aspect=fixed;" vertex="1" parent="WIyWlLk6GJQsqaUBKTNV-1">
          <mxGeometry x="420" y="2040" width="60" height="60" as="geometry" />
        </mxCell>
        <mxCell id="byHmETt_M6u5Pi3XQ0Mt-118" value="" style="edgeStyle=orthogonalEdgeStyle;rounded=0;orthogonalLoop=1;jettySize=auto;html=1;" edge="1" parent="WIyWlLk6GJQsqaUBKTNV-1" source="byHmETt_M6u5Pi3XQ0Mt-152" target="byHmETt_M6u5Pi3XQ0Mt-117">
          <mxGeometry relative="1" as="geometry" />
        </mxCell>
        <mxCell id="byHmETt_M6u5Pi3XQ0Mt-119" value="Get AM info" style="shape=parallelogram;perimeter=parallelogramPerimeter;whiteSpace=wrap;html=1;fixedSize=1;rounded=0;sketch=0;" vertex="1" parent="WIyWlLk6GJQsqaUBKTNV-1">
          <mxGeometry x="770" y="1714.21" width="120" height="60" as="geometry" />
        </mxCell>
        <mxCell id="byHmETt_M6u5Pi3XQ0Mt-138" value="" style="edgeStyle=orthogonalEdgeStyle;rounded=0;orthogonalLoop=1;jettySize=auto;html=1;" edge="1" parent="WIyWlLk6GJQsqaUBKTNV-1" source="byHmETt_M6u5Pi3XQ0Mt-121" target="byHmETt_M6u5Pi3XQ0Mt-137">
          <mxGeometry relative="1" as="geometry" />
        </mxCell>
        <mxCell id="byHmETt_M6u5Pi3XQ0Mt-121" value="Admin Product List" style="whiteSpace=wrap;html=1;aspect=fixed;" vertex="1" parent="WIyWlLk6GJQsqaUBKTNV-1">
          <mxGeometry x="910" y="1854.21" width="60" height="60" as="geometry" />
        </mxCell>
        <mxCell id="byHmETt_M6u5Pi3XQ0Mt-122" value="" style="edgeStyle=orthogonalEdgeStyle;rounded=0;orthogonalLoop=1;jettySize=auto;html=1;" edge="1" parent="WIyWlLk6GJQsqaUBKTNV-1" source="byHmETt_M6u5Pi3XQ0Mt-119" target="byHmETt_M6u5Pi3XQ0Mt-121">
          <mxGeometry relative="1" as="geometry" />
        </mxCell>
        <mxCell id="byHmETt_M6u5Pi3XQ0Mt-132" value="" style="edgeStyle=orthogonalEdgeStyle;rounded=0;orthogonalLoop=1;jettySize=auto;html=1;" edge="1" parent="WIyWlLk6GJQsqaUBKTNV-1" source="byHmETt_M6u5Pi3XQ0Mt-124" target="byHmETt_M6u5Pi3XQ0Mt-131">
          <mxGeometry relative="1" as="geometry" />
        </mxCell>
        <mxCell id="byHmETt_M6u5Pi3XQ0Mt-135" value="" style="edgeStyle=orthogonalEdgeStyle;rounded=0;orthogonalLoop=1;jettySize=auto;html=1;" edge="1" parent="WIyWlLk6GJQsqaUBKTNV-1" source="byHmETt_M6u5Pi3XQ0Mt-124" target="byHmETt_M6u5Pi3XQ0Mt-134">
          <mxGeometry relative="1" as="geometry" />
        </mxCell>
        <mxCell id="byHmETt_M6u5Pi3XQ0Mt-124" value="" style="shape=waypoint;sketch=0;size=6;pointerEvents=1;points=[];fillColor=default;resizable=0;rotatable=0;perimeter=centerPerimeter;snapToPoint=1;" vertex="1" parent="WIyWlLk6GJQsqaUBKTNV-1">
          <mxGeometry x="440" y="2200" width="20" height="20" as="geometry" />
        </mxCell>
        <mxCell id="byHmETt_M6u5Pi3XQ0Mt-190" value="" style="edgeStyle=orthogonalEdgeStyle;rounded=0;orthogonalLoop=1;jettySize=auto;html=1;" edge="1" parent="WIyWlLk6GJQsqaUBKTNV-1" source="byHmETt_M6u5Pi3XQ0Mt-128" target="byHmETt_M6u5Pi3XQ0Mt-189">
          <mxGeometry relative="1" as="geometry" />
        </mxCell>
        <mxCell id="byHmETt_M6u5Pi3XQ0Mt-128" value="Cart" style="whiteSpace=wrap;html=1;aspect=fixed;" vertex="1" parent="WIyWlLk6GJQsqaUBKTNV-1">
          <mxGeometry x="420" y="2555.79" width="60" height="60" as="geometry" />
        </mxCell>
        <mxCell id="byHmETt_M6u5Pi3XQ0Mt-133" style="edgeStyle=orthogonalEdgeStyle;rounded=0;orthogonalLoop=1;jettySize=auto;html=1;entryX=0;entryY=0.5;entryDx=0;entryDy=0;" edge="1" parent="WIyWlLk6GJQsqaUBKTNV-1" source="byHmETt_M6u5Pi3XQ0Mt-131" target="byHmETt_M6u5Pi3XQ0Mt-128">
          <mxGeometry relative="1" as="geometry">
            <mxPoint x="90" y="2315.79" as="targetPoint" />
            <Array as="points">
              <mxPoint x="370" y="2586" />
            </Array>
          </mxGeometry>
        </mxCell>
        <mxCell id="byHmETt_M6u5Pi3XQ0Mt-131" value="User click Cart" style="rounded=1;whiteSpace=wrap;html=1;sketch=0;" vertex="1" parent="WIyWlLk6GJQsqaUBKTNV-1">
          <mxGeometry x="310" y="2275.79" width="120" height="60" as="geometry" />
        </mxCell>
        <mxCell id="byHmETt_M6u5Pi3XQ0Mt-136" style="edgeStyle=orthogonalEdgeStyle;rounded=0;orthogonalLoop=1;jettySize=auto;html=1;entryX=1;entryY=0.5;entryDx=0;entryDy=0;" edge="1" parent="WIyWlLk6GJQsqaUBKTNV-1" source="byHmETt_M6u5Pi3XQ0Mt-134" target="byHmETt_M6u5Pi3XQ0Mt-128">
          <mxGeometry relative="1" as="geometry">
            <Array as="points">
              <mxPoint x="590" y="2586" />
            </Array>
          </mxGeometry>
        </mxCell>
        <mxCell id="byHmETt_M6u5Pi3XQ0Mt-134" value="User click &quot;Buy now&quot;" style="rounded=1;whiteSpace=wrap;html=1;sketch=0;" vertex="1" parent="WIyWlLk6GJQsqaUBKTNV-1">
          <mxGeometry x="530" y="2275.79" width="120" height="60" as="geometry" />
        </mxCell>
        <mxCell id="byHmETt_M6u5Pi3XQ0Mt-140" value="" style="edgeStyle=orthogonalEdgeStyle;rounded=0;orthogonalLoop=1;jettySize=auto;html=1;" edge="1" parent="WIyWlLk6GJQsqaUBKTNV-1" source="byHmETt_M6u5Pi3XQ0Mt-137" target="byHmETt_M6u5Pi3XQ0Mt-139">
          <mxGeometry relative="1" as="geometry" />
        </mxCell>
        <mxCell id="byHmETt_M6u5Pi3XQ0Mt-142" value="" style="edgeStyle=orthogonalEdgeStyle;rounded=0;orthogonalLoop=1;jettySize=auto;html=1;" edge="1" parent="WIyWlLk6GJQsqaUBKTNV-1" source="byHmETt_M6u5Pi3XQ0Mt-137" target="byHmETt_M6u5Pi3XQ0Mt-141">
          <mxGeometry relative="1" as="geometry" />
        </mxCell>
        <mxCell id="byHmETt_M6u5Pi3XQ0Mt-137" value="" style="shape=waypoint;sketch=0;size=6;pointerEvents=1;points=[];fillColor=default;resizable=0;rotatable=0;perimeter=centerPerimeter;snapToPoint=1;" vertex="1" parent="WIyWlLk6GJQsqaUBKTNV-1">
          <mxGeometry x="1230" y="2020" width="20" height="20" as="geometry" />
        </mxCell>
        <mxCell id="byHmETt_M6u5Pi3XQ0Mt-144" value="" style="edgeStyle=orthogonalEdgeStyle;rounded=0;orthogonalLoop=1;jettySize=auto;html=1;" edge="1" parent="WIyWlLk6GJQsqaUBKTNV-1" source="byHmETt_M6u5Pi3XQ0Mt-139" target="byHmETt_M6u5Pi3XQ0Mt-143">
          <mxGeometry relative="1" as="geometry" />
        </mxCell>
        <mxCell id="byHmETt_M6u5Pi3XQ0Mt-139" value="Admin click &quot;User management&quot;" style="rounded=1;whiteSpace=wrap;html=1;sketch=0;" vertex="1" parent="WIyWlLk6GJQsqaUBKTNV-1">
          <mxGeometry x="1020" y="2095.79" width="120" height="60" as="geometry" />
        </mxCell>
        <mxCell id="byHmETt_M6u5Pi3XQ0Mt-146" value="" style="edgeStyle=orthogonalEdgeStyle;rounded=0;orthogonalLoop=1;jettySize=auto;html=1;" edge="1" parent="WIyWlLk6GJQsqaUBKTNV-1" source="byHmETt_M6u5Pi3XQ0Mt-141" target="byHmETt_M6u5Pi3XQ0Mt-145">
          <mxGeometry relative="1" as="geometry" />
        </mxCell>
        <mxCell id="byHmETt_M6u5Pi3XQ0Mt-141" value="Admin click &quot;Product management&quot;" style="rounded=1;whiteSpace=wrap;html=1;sketch=0;" vertex="1" parent="WIyWlLk6GJQsqaUBKTNV-1">
          <mxGeometry x="1440" y="2105.79" width="120" height="60" as="geometry" />
        </mxCell>
        <mxCell id="byHmETt_M6u5Pi3XQ0Mt-143" value="Get user list info" style="shape=parallelogram;perimeter=parallelogramPerimeter;whiteSpace=wrap;html=1;fixedSize=1;rounded=0;sketch=0;" vertex="1" parent="WIyWlLk6GJQsqaUBKTNV-1">
          <mxGeometry x="1020" y="2235.79" width="120" height="60" as="geometry" />
        </mxCell>
        <mxCell id="byHmETt_M6u5Pi3XQ0Mt-145" value="Get product&lt;br&gt;&amp;nbsp;list info" style="shape=parallelogram;perimeter=parallelogramPerimeter;whiteSpace=wrap;html=1;fixedSize=1;rounded=0;sketch=0;" vertex="1" parent="WIyWlLk6GJQsqaUBKTNV-1">
          <mxGeometry x="1440" y="2235.79" width="120" height="60" as="geometry" />
        </mxCell>
        <mxCell id="byHmETt_M6u5Pi3XQ0Mt-154" value="" style="edgeStyle=orthogonalEdgeStyle;rounded=0;orthogonalLoop=1;jettySize=auto;html=1;" edge="1" parent="WIyWlLk6GJQsqaUBKTNV-1" source="byHmETt_M6u5Pi3XQ0Mt-147" target="byHmETt_M6u5Pi3XQ0Mt-153">
          <mxGeometry relative="1" as="geometry" />
        </mxCell>
        <mxCell id="byHmETt_M6u5Pi3XQ0Mt-147" value="userList" style="whiteSpace=wrap;html=1;aspect=fixed;" vertex="1" parent="WIyWlLk6GJQsqaUBKTNV-1">
          <mxGeometry x="1050" y="2375.79" width="60" height="60" as="geometry" />
        </mxCell>
        <mxCell id="byHmETt_M6u5Pi3XQ0Mt-148" value="" style="edgeStyle=orthogonalEdgeStyle;rounded=0;orthogonalLoop=1;jettySize=auto;html=1;" edge="1" parent="WIyWlLk6GJQsqaUBKTNV-1" source="byHmETt_M6u5Pi3XQ0Mt-143" target="byHmETt_M6u5Pi3XQ0Mt-147">
          <mxGeometry relative="1" as="geometry" />
        </mxCell>
        <mxCell id="byHmETt_M6u5Pi3XQ0Mt-162" value="" style="edgeStyle=orthogonalEdgeStyle;rounded=0;orthogonalLoop=1;jettySize=auto;html=1;" edge="1" parent="WIyWlLk6GJQsqaUBKTNV-1" source="byHmETt_M6u5Pi3XQ0Mt-149" target="byHmETt_M6u5Pi3XQ0Mt-161">
          <mxGeometry relative="1" as="geometry">
            <Array as="points">
              <mxPoint x="1630" y="2405.79" />
              <mxPoint x="1630" y="2545.79" />
            </Array>
          </mxGeometry>
        </mxCell>
        <mxCell id="byHmETt_M6u5Pi3XQ0Mt-149" value="Product List" style="whiteSpace=wrap;html=1;aspect=fixed;" vertex="1" parent="WIyWlLk6GJQsqaUBKTNV-1">
          <mxGeometry x="1470" y="2375.79" width="60" height="60" as="geometry" />
        </mxCell>
        <mxCell id="byHmETt_M6u5Pi3XQ0Mt-150" value="" style="edgeStyle=orthogonalEdgeStyle;rounded=0;orthogonalLoop=1;jettySize=auto;html=1;" edge="1" parent="WIyWlLk6GJQsqaUBKTNV-1" source="byHmETt_M6u5Pi3XQ0Mt-145" target="byHmETt_M6u5Pi3XQ0Mt-149">
          <mxGeometry relative="1" as="geometry" />
        </mxCell>
        <mxCell id="byHmETt_M6u5Pi3XQ0Mt-152" value="Get product list" style="shape=parallelogram;perimeter=parallelogramPerimeter;whiteSpace=wrap;html=1;fixedSize=1;" vertex="1" parent="WIyWlLk6GJQsqaUBKTNV-1">
          <mxGeometry x="390" y="1860" width="120" height="60" as="geometry" />
        </mxCell>
        <mxCell id="byHmETt_M6u5Pi3XQ0Mt-156" value="" style="edgeStyle=orthogonalEdgeStyle;rounded=0;orthogonalLoop=1;jettySize=auto;html=1;" edge="1" parent="WIyWlLk6GJQsqaUBKTNV-1" source="byHmETt_M6u5Pi3XQ0Mt-153" target="byHmETt_M6u5Pi3XQ0Mt-155">
          <mxGeometry relative="1" as="geometry">
            <Array as="points">
              <mxPoint x="1010" y="2545.79" />
            </Array>
          </mxGeometry>
        </mxCell>
        <mxCell id="byHmETt_M6u5Pi3XQ0Mt-158" value="" style="edgeStyle=orthogonalEdgeStyle;rounded=0;orthogonalLoop=1;jettySize=auto;html=1;" edge="1" parent="WIyWlLk6GJQsqaUBKTNV-1" source="byHmETt_M6u5Pi3XQ0Mt-153" target="byHmETt_M6u5Pi3XQ0Mt-157">
          <mxGeometry relative="1" as="geometry" />
        </mxCell>
        <mxCell id="byHmETt_M6u5Pi3XQ0Mt-153" value="" style="shape=waypoint;sketch=0;size=6;pointerEvents=1;points=[];fillColor=default;resizable=0;rotatable=0;perimeter=centerPerimeter;snapToPoint=1;" vertex="1" parent="WIyWlLk6GJQsqaUBKTNV-1">
          <mxGeometry x="1070" y="2535.79" width="20" height="20" as="geometry" />
        </mxCell>
        <mxCell id="byHmETt_M6u5Pi3XQ0Mt-208" value="" style="edgeStyle=orthogonalEdgeStyle;rounded=0;orthogonalLoop=1;jettySize=auto;html=1;" edge="1" parent="WIyWlLk6GJQsqaUBKTNV-1" source="byHmETt_M6u5Pi3XQ0Mt-155" target="byHmETt_M6u5Pi3XQ0Mt-207">
          <mxGeometry relative="1" as="geometry" />
        </mxCell>
        <mxCell id="byHmETt_M6u5Pi3XQ0Mt-155" value="Edit User" style="rounded=1;whiteSpace=wrap;html=1;sketch=0;" vertex="1" parent="WIyWlLk6GJQsqaUBKTNV-1">
          <mxGeometry x="950" y="2595.79" width="120" height="60" as="geometry" />
        </mxCell>
        <mxCell id="byHmETt_M6u5Pi3XQ0Mt-203" value="" style="edgeStyle=orthogonalEdgeStyle;rounded=0;orthogonalLoop=1;jettySize=auto;html=1;" edge="1" parent="WIyWlLk6GJQsqaUBKTNV-1" source="byHmETt_M6u5Pi3XQ0Mt-157" target="byHmETt_M6u5Pi3XQ0Mt-202">
          <mxGeometry relative="1" as="geometry" />
        </mxCell>
        <mxCell id="byHmETt_M6u5Pi3XQ0Mt-157" value="Delete User" style="rounded=1;whiteSpace=wrap;html=1;sketch=0;" vertex="1" parent="WIyWlLk6GJQsqaUBKTNV-1">
          <mxGeometry x="1140" y="2605.79" width="120" height="60" as="geometry" />
        </mxCell>
        <mxCell id="byHmETt_M6u5Pi3XQ0Mt-164" value="" style="edgeStyle=orthogonalEdgeStyle;rounded=0;orthogonalLoop=1;jettySize=auto;html=1;" edge="1" parent="WIyWlLk6GJQsqaUBKTNV-1" source="byHmETt_M6u5Pi3XQ0Mt-161" target="byHmETt_M6u5Pi3XQ0Mt-163">
          <mxGeometry relative="1" as="geometry" />
        </mxCell>
        <mxCell id="byHmETt_M6u5Pi3XQ0Mt-166" value="" style="edgeStyle=orthogonalEdgeStyle;rounded=0;orthogonalLoop=1;jettySize=auto;html=1;" edge="1" parent="WIyWlLk6GJQsqaUBKTNV-1" source="byHmETt_M6u5Pi3XQ0Mt-161" target="byHmETt_M6u5Pi3XQ0Mt-165">
          <mxGeometry relative="1" as="geometry" />
        </mxCell>
        <mxCell id="byHmETt_M6u5Pi3XQ0Mt-161" value="" style="shape=waypoint;sketch=0;size=6;pointerEvents=1;points=[];fillColor=default;resizable=0;rotatable=0;perimeter=centerPerimeter;snapToPoint=1;" vertex="1" parent="WIyWlLk6GJQsqaUBKTNV-1">
          <mxGeometry x="1620" y="2535.79" width="20" height="20" as="geometry" />
        </mxCell>
        <mxCell id="byHmETt_M6u5Pi3XQ0Mt-212" value="" style="edgeStyle=orthogonalEdgeStyle;rounded=0;orthogonalLoop=1;jettySize=auto;html=1;" edge="1" parent="WIyWlLk6GJQsqaUBKTNV-1" source="byHmETt_M6u5Pi3XQ0Mt-163" target="byHmETt_M6u5Pi3XQ0Mt-211">
          <mxGeometry relative="1" as="geometry" />
        </mxCell>
        <mxCell id="byHmETt_M6u5Pi3XQ0Mt-163" value="Edit Product" style="rounded=1;whiteSpace=wrap;html=1;sketch=0;" vertex="1" parent="WIyWlLk6GJQsqaUBKTNV-1">
          <mxGeometry x="1460" y="2595.79" width="120" height="60" as="geometry" />
        </mxCell>
        <mxCell id="byHmETt_M6u5Pi3XQ0Mt-217" value="" style="edgeStyle=orthogonalEdgeStyle;rounded=0;orthogonalLoop=1;jettySize=auto;html=1;" edge="1" parent="WIyWlLk6GJQsqaUBKTNV-1" source="byHmETt_M6u5Pi3XQ0Mt-165" target="byHmETt_M6u5Pi3XQ0Mt-216">
          <mxGeometry relative="1" as="geometry" />
        </mxCell>
        <mxCell id="byHmETt_M6u5Pi3XQ0Mt-165" value="Delete Product" style="rounded=1;whiteSpace=wrap;html=1;sketch=0;" vertex="1" parent="WIyWlLk6GJQsqaUBKTNV-1">
          <mxGeometry x="1720" y="2595.79" width="120" height="60" as="geometry" />
        </mxCell>
        <mxCell id="byHmETt_M6u5Pi3XQ0Mt-174" value="" style="edgeStyle=orthogonalEdgeStyle;rounded=0;orthogonalLoop=1;jettySize=auto;html=1;" edge="1" parent="WIyWlLk6GJQsqaUBKTNV-1" source="byHmETt_M6u5Pi3XQ0Mt-171" target="byHmETt_M6u5Pi3XQ0Mt-173">
          <mxGeometry relative="1" as="geometry" />
        </mxCell>
        <mxCell id="byHmETt_M6u5Pi3XQ0Mt-171" value="User click for detaiil" style="rounded=1;whiteSpace=wrap;html=1;" vertex="1" parent="WIyWlLk6GJQsqaUBKTNV-1">
          <mxGeometry x="90" y="2275.79" width="120" height="60" as="geometry" />
        </mxCell>
        <mxCell id="byHmETt_M6u5Pi3XQ0Mt-172" value="" style="edgeStyle=orthogonalEdgeStyle;rounded=0;orthogonalLoop=1;jettySize=auto;html=1;" edge="1" parent="WIyWlLk6GJQsqaUBKTNV-1" source="byHmETt_M6u5Pi3XQ0Mt-124" target="byHmETt_M6u5Pi3XQ0Mt-171">
          <mxGeometry relative="1" as="geometry" />
        </mxCell>
        <mxCell id="byHmETt_M6u5Pi3XQ0Mt-173" value="Get Product detail" style="shape=parallelogram;perimeter=parallelogramPerimeter;whiteSpace=wrap;html=1;fixedSize=1;rounded=0;" vertex="1" parent="WIyWlLk6GJQsqaUBKTNV-1">
          <mxGeometry x="90" y="2415.79" width="120" height="60" as="geometry" />
        </mxCell>
        <mxCell id="byHmETt_M6u5Pi3XQ0Mt-180" value="" style="edgeStyle=orthogonalEdgeStyle;rounded=0;orthogonalLoop=1;jettySize=auto;html=1;" edge="1" parent="WIyWlLk6GJQsqaUBKTNV-1" source="byHmETt_M6u5Pi3XQ0Mt-175" target="byHmETt_M6u5Pi3XQ0Mt-179">
          <mxGeometry relative="1" as="geometry" />
        </mxCell>
        <mxCell id="byHmETt_M6u5Pi3XQ0Mt-175" value="Product detail" style="whiteSpace=wrap;html=1;aspect=fixed;" vertex="1" parent="WIyWlLk6GJQsqaUBKTNV-1">
          <mxGeometry x="120" y="2555.79" width="60" height="60" as="geometry" />
        </mxCell>
        <mxCell id="byHmETt_M6u5Pi3XQ0Mt-176" value="" style="edgeStyle=orthogonalEdgeStyle;rounded=0;orthogonalLoop=1;jettySize=auto;html=1;" edge="1" parent="WIyWlLk6GJQsqaUBKTNV-1" source="byHmETt_M6u5Pi3XQ0Mt-173" target="byHmETt_M6u5Pi3XQ0Mt-175">
          <mxGeometry relative="1" as="geometry" />
        </mxCell>
        <mxCell id="byHmETt_M6u5Pi3XQ0Mt-184" value="" style="edgeStyle=orthogonalEdgeStyle;rounded=0;orthogonalLoop=1;jettySize=auto;html=1;" edge="1" parent="WIyWlLk6GJQsqaUBKTNV-1" source="byHmETt_M6u5Pi3XQ0Mt-179" target="byHmETt_M6u5Pi3XQ0Mt-183">
          <mxGeometry relative="1" as="geometry" />
        </mxCell>
        <mxCell id="byHmETt_M6u5Pi3XQ0Mt-186" value="" style="edgeStyle=orthogonalEdgeStyle;rounded=0;orthogonalLoop=1;jettySize=auto;html=1;" edge="1" parent="WIyWlLk6GJQsqaUBKTNV-1" source="byHmETt_M6u5Pi3XQ0Mt-179" target="byHmETt_M6u5Pi3XQ0Mt-185">
          <mxGeometry relative="1" as="geometry">
            <Array as="points">
              <mxPoint x="170" y="2726" />
            </Array>
          </mxGeometry>
        </mxCell>
        <mxCell id="byHmETt_M6u5Pi3XQ0Mt-179" value="" style="shape=waypoint;sketch=0;size=6;pointerEvents=1;points=[];fillColor=default;resizable=0;rotatable=0;perimeter=centerPerimeter;snapToPoint=1;" vertex="1" parent="WIyWlLk6GJQsqaUBKTNV-1">
          <mxGeometry x="140" y="2715.79" width="20" height="20" as="geometry" />
        </mxCell>
        <mxCell id="byHmETt_M6u5Pi3XQ0Mt-187" style="edgeStyle=orthogonalEdgeStyle;rounded=0;orthogonalLoop=1;jettySize=auto;html=1;entryX=0;entryY=0.75;entryDx=0;entryDy=0;" edge="1" parent="WIyWlLk6GJQsqaUBKTNV-1" source="byHmETt_M6u5Pi3XQ0Mt-183" target="byHmETt_M6u5Pi3XQ0Mt-128">
          <mxGeometry relative="1" as="geometry">
            <Array as="points">
              <mxPoint x="-10" y="2660" />
              <mxPoint x="245" y="2660" />
              <mxPoint x="245" y="2601" />
            </Array>
          </mxGeometry>
        </mxCell>
        <mxCell id="byHmETt_M6u5Pi3XQ0Mt-183" value="User buy the product" style="rounded=1;whiteSpace=wrap;html=1;sketch=0;" vertex="1" parent="WIyWlLk6GJQsqaUBKTNV-1">
          <mxGeometry x="-50" y="2790" width="120" height="60" as="geometry" />
        </mxCell>
        <mxCell id="byHmETt_M6u5Pi3XQ0Mt-188" style="edgeStyle=orthogonalEdgeStyle;rounded=0;orthogonalLoop=1;jettySize=auto;html=1;exitX=0.75;exitY=0;exitDx=0;exitDy=0;entryX=0.25;entryY=1;entryDx=0;entryDy=0;" edge="1" parent="WIyWlLk6GJQsqaUBKTNV-1" source="byHmETt_M6u5Pi3XQ0Mt-185" target="byHmETt_M6u5Pi3XQ0Mt-128">
          <mxGeometry relative="1" as="geometry" />
        </mxCell>
        <mxCell id="byHmETt_M6u5Pi3XQ0Mt-185" value="User add product to cart" style="rounded=1;whiteSpace=wrap;html=1;sketch=0;" vertex="1" parent="WIyWlLk6GJQsqaUBKTNV-1">
          <mxGeometry x="110" y="2790" width="120" height="60" as="geometry" />
        </mxCell>
        <mxCell id="byHmETt_M6u5Pi3XQ0Mt-191" style="edgeStyle=orthogonalEdgeStyle;rounded=0;orthogonalLoop=1;jettySize=auto;html=1;entryX=1;entryY=0.5;entryDx=0;entryDy=0;" edge="1" parent="WIyWlLk6GJQsqaUBKTNV-1" source="byHmETt_M6u5Pi3XQ0Mt-189" target="byHmETt_M6u5Pi3XQ0Mt-175">
          <mxGeometry relative="1" as="geometry" />
        </mxCell>
        <mxCell id="byHmETt_M6u5Pi3XQ0Mt-192" value="no" style="edgeLabel;html=1;align=center;verticalAlign=middle;resizable=0;points=[];" vertex="1" connectable="0" parent="byHmETt_M6u5Pi3XQ0Mt-191">
          <mxGeometry x="-0.8433" relative="1" as="geometry">
            <mxPoint as="offset" />
          </mxGeometry>
        </mxCell>
        <mxCell id="byHmETt_M6u5Pi3XQ0Mt-189" value="Buy ?" style="rhombus;whiteSpace=wrap;html=1;" vertex="1" parent="WIyWlLk6GJQsqaUBKTNV-1">
          <mxGeometry x="410" y="2740" width="80" height="80" as="geometry" />
        </mxCell>
        <mxCell id="byHmETt_M6u5Pi3XQ0Mt-197" value="" style="edgeStyle=orthogonalEdgeStyle;rounded=0;orthogonalLoop=1;jettySize=auto;html=1;" edge="1" parent="WIyWlLk6GJQsqaUBKTNV-1" source="byHmETt_M6u5Pi3XQ0Mt-193" target="byHmETt_M6u5Pi3XQ0Mt-196">
          <mxGeometry relative="1" as="geometry" />
        </mxCell>
        <mxCell id="byHmETt_M6u5Pi3XQ0Mt-193" value="Order From" style="whiteSpace=wrap;html=1;aspect=fixed;" vertex="1" parent="WIyWlLk6GJQsqaUBKTNV-1">
          <mxGeometry x="410" y="2900" width="80" height="80" as="geometry" />
        </mxCell>
        <mxCell id="byHmETt_M6u5Pi3XQ0Mt-194" value="" style="edgeStyle=orthogonalEdgeStyle;rounded=0;orthogonalLoop=1;jettySize=auto;html=1;" edge="1" parent="WIyWlLk6GJQsqaUBKTNV-1" source="byHmETt_M6u5Pi3XQ0Mt-189" target="byHmETt_M6u5Pi3XQ0Mt-193">
          <mxGeometry relative="1" as="geometry" />
        </mxCell>
        <mxCell id="byHmETt_M6u5Pi3XQ0Mt-195" value="yes" style="edgeLabel;html=1;align=center;verticalAlign=middle;resizable=0;points=[];" vertex="1" connectable="0" parent="byHmETt_M6u5Pi3XQ0Mt-194">
          <mxGeometry x="-0.4687" y="-1" relative="1" as="geometry">
            <mxPoint as="offset" />
          </mxGeometry>
        </mxCell>
        <mxCell id="byHmETt_M6u5Pi3XQ0Mt-200" style="edgeStyle=orthogonalEdgeStyle;rounded=0;orthogonalLoop=1;jettySize=auto;html=1;entryX=0;entryY=0.5;entryDx=0;entryDy=0;" edge="1" parent="WIyWlLk6GJQsqaUBKTNV-1" source="byHmETt_M6u5Pi3XQ0Mt-196" target="byHmETt_M6u5Pi3XQ0Mt-117">
          <mxGeometry relative="1" as="geometry">
            <Array as="points">
              <mxPoint x="-120" y="3100" />
              <mxPoint x="-120" y="2070" />
            </Array>
          </mxGeometry>
        </mxCell>
        <mxCell id="byHmETt_M6u5Pi3XQ0Mt-201" value="complete&lt;br&gt;" style="edgeLabel;html=1;align=center;verticalAlign=middle;resizable=0;points=[];" vertex="1" connectable="0" parent="byHmETt_M6u5Pi3XQ0Mt-200">
          <mxGeometry x="-0.9478" y="1" relative="1" as="geometry">
            <mxPoint as="offset" />
          </mxGeometry>
        </mxCell>
        <mxCell id="byHmETt_M6u5Pi3XQ0Mt-196" value="Post Order" style="shape=parallelogram;perimeter=parallelogramPerimeter;whiteSpace=wrap;html=1;fixedSize=1;" vertex="1" parent="WIyWlLk6GJQsqaUBKTNV-1">
          <mxGeometry x="390" y="3070" width="120" height="60" as="geometry" />
        </mxCell>
        <mxCell id="byHmETt_M6u5Pi3XQ0Mt-204" style="edgeStyle=orthogonalEdgeStyle;rounded=0;orthogonalLoop=1;jettySize=auto;html=1;exitX=1;exitY=0.5;exitDx=0;exitDy=0;entryX=1;entryY=0.5;entryDx=0;entryDy=0;" edge="1" parent="WIyWlLk6GJQsqaUBKTNV-1" source="byHmETt_M6u5Pi3XQ0Mt-202" target="byHmETt_M6u5Pi3XQ0Mt-147">
          <mxGeometry relative="1" as="geometry">
            <Array as="points">
              <mxPoint x="1290" y="2775.79" />
              <mxPoint x="1290" y="2405.79" />
            </Array>
          </mxGeometry>
        </mxCell>
        <mxCell id="byHmETt_M6u5Pi3XQ0Mt-206" value="complete&lt;br&gt;" style="edgeLabel;html=1;align=center;verticalAlign=middle;resizable=0;points=[];" vertex="1" connectable="0" parent="byHmETt_M6u5Pi3XQ0Mt-204">
          <mxGeometry x="-0.7797" y="3" relative="1" as="geometry">
            <mxPoint as="offset" />
          </mxGeometry>
        </mxCell>
        <mxCell id="byHmETt_M6u5Pi3XQ0Mt-202" value="Delete User" style="shape=parallelogram;perimeter=parallelogramPerimeter;whiteSpace=wrap;html=1;fixedSize=1;rounded=0;sketch=0;" vertex="1" parent="WIyWlLk6GJQsqaUBKTNV-1">
          <mxGeometry x="1140" y="2745.79" width="120" height="60" as="geometry" />
        </mxCell>
        <mxCell id="byHmETt_M6u5Pi3XQ0Mt-209" style="edgeStyle=orthogonalEdgeStyle;rounded=0;orthogonalLoop=1;jettySize=auto;html=1;entryX=0;entryY=0.5;entryDx=0;entryDy=0;" edge="1" parent="WIyWlLk6GJQsqaUBKTNV-1" source="byHmETt_M6u5Pi3XQ0Mt-207" target="byHmETt_M6u5Pi3XQ0Mt-147">
          <mxGeometry relative="1" as="geometry">
            <Array as="points">
              <mxPoint x="850" y="2766" />
              <mxPoint x="850" y="2400" />
              <mxPoint x="1050" y="2400" />
            </Array>
          </mxGeometry>
        </mxCell>
        <mxCell id="byHmETt_M6u5Pi3XQ0Mt-210" value="complete" style="edgeLabel;html=1;align=center;verticalAlign=middle;resizable=0;points=[];" vertex="1" connectable="0" parent="byHmETt_M6u5Pi3XQ0Mt-209">
          <mxGeometry x="-0.6149" y="-1" relative="1" as="geometry">
            <mxPoint as="offset" />
          </mxGeometry>
        </mxCell>
        <mxCell id="byHmETt_M6u5Pi3XQ0Mt-207" value="Put&amp;nbsp; User" style="shape=parallelogram;perimeter=parallelogramPerimeter;whiteSpace=wrap;html=1;fixedSize=1;rounded=0;sketch=0;" vertex="1" parent="WIyWlLk6GJQsqaUBKTNV-1">
          <mxGeometry x="950" y="2741.58" width="120" height="60" as="geometry" />
        </mxCell>
        <mxCell id="byHmETt_M6u5Pi3XQ0Mt-213" style="edgeStyle=orthogonalEdgeStyle;rounded=0;orthogonalLoop=1;jettySize=auto;html=1;exitX=0;exitY=0.5;exitDx=0;exitDy=0;entryX=0;entryY=0.5;entryDx=0;entryDy=0;" edge="1" parent="WIyWlLk6GJQsqaUBKTNV-1" source="byHmETt_M6u5Pi3XQ0Mt-211" target="byHmETt_M6u5Pi3XQ0Mt-149">
          <mxGeometry relative="1" as="geometry">
            <Array as="points">
              <mxPoint x="1390" y="2765.79" />
              <mxPoint x="1390" y="2405.79" />
            </Array>
          </mxGeometry>
        </mxCell>
        <mxCell id="byHmETt_M6u5Pi3XQ0Mt-214" value="complete" style="edgeLabel;html=1;align=center;verticalAlign=middle;resizable=0;points=[];" vertex="1" connectable="0" parent="byHmETt_M6u5Pi3XQ0Mt-213">
          <mxGeometry x="-0.8192" relative="1" as="geometry">
            <mxPoint x="1" as="offset" />
          </mxGeometry>
        </mxCell>
        <mxCell id="byHmETt_M6u5Pi3XQ0Mt-211" value="Put Product" style="shape=parallelogram;perimeter=parallelogramPerimeter;whiteSpace=wrap;html=1;fixedSize=1;rounded=0;sketch=0;" vertex="1" parent="WIyWlLk6GJQsqaUBKTNV-1">
          <mxGeometry x="1460" y="2735.79" width="120" height="60" as="geometry" />
        </mxCell>
        <mxCell id="byHmETt_M6u5Pi3XQ0Mt-218" style="edgeStyle=orthogonalEdgeStyle;rounded=0;orthogonalLoop=1;jettySize=auto;html=1;exitX=1;exitY=0.5;exitDx=0;exitDy=0;entryX=0.75;entryY=0;entryDx=0;entryDy=0;" edge="1" parent="WIyWlLk6GJQsqaUBKTNV-1" source="byHmETt_M6u5Pi3XQ0Mt-216" target="byHmETt_M6u5Pi3XQ0Mt-149">
          <mxGeometry relative="1" as="geometry">
            <Array as="points">
              <mxPoint x="1950" y="2765.79" />
              <mxPoint x="1950" y="2355.79" />
              <mxPoint x="1515" y="2355.79" />
            </Array>
          </mxGeometry>
        </mxCell>
        <mxCell id="byHmETt_M6u5Pi3XQ0Mt-219" value="complete" style="edgeLabel;html=1;align=center;verticalAlign=middle;resizable=0;points=[];" vertex="1" connectable="0" parent="byHmETt_M6u5Pi3XQ0Mt-218">
          <mxGeometry x="-0.8924" y="-4" relative="1" as="geometry">
            <mxPoint as="offset" />
          </mxGeometry>
        </mxCell>
        <mxCell id="byHmETt_M6u5Pi3XQ0Mt-216" value="Delete Product" style="shape=parallelogram;perimeter=parallelogramPerimeter;whiteSpace=wrap;html=1;fixedSize=1;rounded=0;sketch=0;" vertex="1" parent="WIyWlLk6GJQsqaUBKTNV-1">
          <mxGeometry x="1720" y="2735.79" width="120" height="60" as="geometry" />
        </mxCell>
      </root>
    </mxGraphModel>
  </diagram>
</mxfile>
